<svg xmlns="http://www.w3.org/2000/svg" viewBox="0 0 100 100">
  <path d="M50 12C26 12 8 30 8 54c0 9 3 17 7 24 1 2 4 3 6 1 2-1 3-4 1-6-3-5-6-12-6-19 0-19 16-34 34-34s34 15 34 34c0 7-3 14-6 19-2 2-1 5 1 6 2 2 5 1 6-1 4-7 7-15 7-24 0-24-18-42-42-42z"/>
  <path d="M50 30c-2 0-4 2-4 4v18c-4 2-7 6-7 11 0 7 6 12 12 12s12-5 12-12c0-5-3-9-7-11V34c0-2-2-4-4-4z"/>
  <circle cx="22" cy="56" r="3"/>
  <circle cx="78" cy="56" r="3"/>
  <circle cx="34" cy="32" r="3"/>
  <circle cx="66" cy="32" r="3"/>
</svg>
