<svg xmlns="http://www.w3.org/2000/svg" viewBox="4.84 -60.89 105.86 51.27">
  <path d="M6.83594-35.2539C6.83594-20.8984 15.7227-11.6211 28.9551-11.6211C35.9375-11.6211 41.8945-14.5508 48.2422-20.6543L57.7637-29.8828L67.2852-20.6543C73.6328-14.5508 79.5898-11.6211 86.5723-11.6211C99.8047-11.6211 108.691-20.8984 108.691-35.2539C108.691-49.6094 99.8047-58.8867 86.5723-58.8867C79.5898-58.8867 73.6328-55.957 67.2852-49.8535L57.7637-40.625L48.2422-49.8535C41.8945-55.957 35.9375-58.8867 28.9551-58.8867C15.7227-58.8867 6.83594-49.6094 6.83594-35.2539ZM14.7949-35.2539C14.7949-44.873 20.5078-50.9277 28.9551-50.9277C33.6914-50.9277 37.8906-48.6816 42.6758-44.1895L52.1973-35.2539L42.6758-26.3184C37.8906-21.8262 33.6914-19.5801 28.9551-19.5801C20.5078-19.5801 14.7949-25.6348 14.7949-35.2539ZM63.3301-35.2539L72.8516-44.1895C77.6367-48.6816 81.8359-50.9277 86.5723-50.9277C95.0195-50.9277 100.732-44.873 100.732-35.2539C100.732-25.6348 95.0195-19.5801 86.5723-19.5801C81.8359-19.5801 77.6367-21.8262 72.8516-26.3184Z"/>
</svg>