<svg xmlns="http://www.w3.org/2000/svg" viewBox="3.13 -73.78 87.25 76.90">
  <path d="M18.75 1.12305L77.4414 1.12305C84.2285 1.12305 88.3789-3.61328 88.3789-9.81445C88.3789-11.6211 87.8418-13.5254 86.8652-15.2344L57.4707-66.2598C55.3711-69.873 51.8066-71.7773 48.0957-71.7773C44.3848-71.7773 40.7715-69.873 38.7207-66.2598L9.32617-15.2344C8.30078-13.4766 7.8125-11.6211 7.8125-9.81445C7.8125-3.61328 11.9629 1.12305 18.75 1.12305ZM18.7988-5.76172C16.4062-5.76172 14.8438-7.71484 14.8438-9.81445C14.8438-10.4492 14.9902-11.2305 15.332-11.8652L44.6777-62.9395C45.4102-64.209 46.7773-64.8438 48.0957-64.8438C49.3652-64.8438 50.6836-64.209 51.4648-62.9395L80.8105-11.8164C81.1523-11.1816 81.2988-10.4492 81.2988-9.81445C81.2988-7.71484 79.7363-5.76172 77.3438-5.76172Z"/>
  <path d="M51.5625-20.8008L51.5625-51.7578C51.5625-53.9062 50.2441-55.3223 48.0957-55.3223C45.9473-55.3223 44.6289-53.9062 44.6289-51.7578L44.6289-20.8008Z"/>
  <path d="M14.9902-17.1387L81.25-17.2363L77.002-23.877L19.1895-23.877Z"/>
  <path d="M45.4102-18.5547L50.3418-23.5352L17.9199-55.9082C16.4551-57.373 14.502-57.4219 12.9883-55.957C11.4258-54.4434 11.5234-52.3926 12.9883-50.9277Z"/>
</svg>
