<svg xmlns="http://www.w3.org/2000/svg" viewBox="7.77 -88.33 72.70 94.77">
  <path d="M25.9766 4.44336L62.2559 4.44336C72.6562 4.44336 78.4668-1.36719 78.4668-11.7676L78.4668-41.4062C78.4668-51.8066 72.6562-57.5684 62.2559-57.5684L25.9766-57.5684C15.5762-57.5684 9.76562-51.8066 9.76562-41.4062L9.76562-11.7676C9.76562-1.36719 15.5762 4.44336 25.9766 4.44336ZM25.9766-2.58789C20.1172-2.58789 16.7969-5.9082 16.7969-11.7676L16.7969-41.4062C16.7969-47.2168 20.1172-50.5371 25.9766-50.5371L62.2559-50.5371C68.1152-50.5371 71.4355-47.2168 71.4355-41.4062L71.4355-11.7676C71.4355-5.9082 68.1152-2.58789 62.2559-2.58789Z"/>
  <path d="M44.0918-78.6621C42.2363-78.6621 40.625-77.1484 40.625-75.293L40.625-37.2559L41.2109-26.123C41.3086-24.5117 42.5293-23.1934 44.0918-23.1934C45.7031-23.1934 46.9238-24.5117 47.0215-26.123L47.6074-37.2559L47.6074-75.293C47.6074-77.1484 45.9961-78.6621 44.0918-78.6621ZM31.1523-40.3809C29.3457-40.3809 28.0273-39.1113 28.0273-37.3535C28.0273-36.4258 28.3691-35.6934 29.0527-35.0586L41.6016-23.0957C42.4805-22.168 43.2129-21.9238 44.0918-21.9238C45.0195-21.9238 45.752-22.168 46.6309-23.0957L59.1797-35.0586C59.8145-35.6934 60.2051-36.4258 60.2051-37.3535C60.2051-39.1113 58.8379-40.3809 57.0312-40.3809C56.1523-40.3809 55.2734-40.0879 54.6387-39.3555L49.2676-33.4961L44.0918-27.9785L38.9648-33.4961L33.5449-39.3555C32.959-40.0879 32.0312-40.3809 31.1523-40.3809Z"/>
</svg>
