<svg xmlns="http://www.w3.org/2000/svg" viewBox="9.23 -88.33 107.08 106.83">
  <path d="M37.79 -35.64 Q37.84 -38.04 38.62 -40.31 Q39.40 -42.58 41.21 -44.38 L81.05 -84.81 Q82.47 -86.33 84.55 -86.30 Q86.62 -86.28 88.04 -84.86 Q89.40 -83.40 89.43 -81.35 Q89.45 -79.30 88.04 -77.83 L49.66 -39.55 Q48.63 -38.53 48.07 -37.23 Q47.51 -35.94 47.51 -34.42 L47.51 -19.78 L48.24 -18.90 L61.87 -18.90 Q63.38 -18.90 64.65 -19.48 Q65.92 -20.07 66.99 -21.09 L105.86 -60.01 Q107.28 -61.47 109.35 -61.47 Q111.43 -61.47 112.84 -60.01 Q114.21 -58.59 114.26 -56.54 Q114.31 -54.49 112.84 -53.03 L72.41 -13.18 Q70.70 -11.47 68.36 -10.64 Q66.02 -9.81 63.67 -9.81 L44.43 -9.77 L25.39 9.23 L18.41 2.29 L37.79 -17.14 Z M20.36 16.50 Q17.87 16.50 15.80 15.26 Q13.72 14.01 12.48 11.94 Q11.23 9.86 11.23 7.32 Q11.23 4.79 12.48 2.71 Q13.72 0.63 15.77 -0.61 Q17.82 -1.86 20.36 -1.86 Q22.90 -1.86 24.98 -0.63 Q27.05 0.59 28.30 2.69 Q29.54 4.79 29.54 7.32 Q29.54 9.86 28.30 11.94 Q27.05 14.01 24.98 15.26 Q22.90 16.50 20.36 16.50 Z"/>
</svg>
